<?xml version="1.0" encoding="utf-8"?>
<!-- Generator: Adobe Illustrator 21.0.2, SVG Export Plug-In . SVG Version: 6.00 Build 0)  -->
<svg version="1.1" id="레이어_1" xmlns="http://www.w3.org/2000/svg" xmlns:xlink="http://www.w3.org/1999/xlink" x="0px"
	 y="0px" width="128px" height="128px" viewBox="0 0 128 128" style="enable-background:new 0 0 128 128;" xml:space="preserve">
<style type="text/css">
	.st0{fill:none;stroke:#342DFF;stroke-width:2;stroke-linecap:round;stroke-miterlimit:10;}
	.st1{fill:none;stroke:#342DFF;stroke-linecap:round;stroke-miterlimit:10;stroke-dasharray:6;}
	.st2{fill:none;stroke:#342DFF;stroke-linecap:round;stroke-miterlimit:10;}
	.st3{fill:none;stroke:#342DFF;stroke-miterlimit:10;}
	.st4{fill:#342DFF;}
</style>
<line class="st0" x1="334" y1="51" x2="270" y2="51"/>
<line class="st0" x1="270" y1="51" x2="206" y2="51"/>
<line class="st0" x1="318" y1="211" x2="286" y2="211"/>
<line class="st0" x1="254" y1="211" x2="222" y2="211"/>
<line class="st0" x1="314.3" y1="192.6" x2="284.8" y2="204.9"/>
<line class="st0" x1="255.2" y1="217.1" x2="225.7" y2="229.4"/>
<line class="st0" x1="303.9" y1="177.1" x2="281.3" y2="199.7"/>
<line class="st0" x1="258.7" y1="222.3" x2="236.1" y2="244.9"/>
<line class="st0" x1="288.4" y1="166.7" x2="276.1" y2="196.2"/>
<line class="st0" x1="263.9" y1="225.8" x2="251.6" y2="255.3"/>
<line class="st0" x1="270" y1="163" x2="270" y2="195"/>
<line class="st0" x1="270" y1="227" x2="270" y2="259"/>
<line class="st0" x1="251.6" y1="166.7" x2="263.9" y2="196.2"/>
<line class="st0" x1="276.1" y1="225.8" x2="288.4" y2="255.3"/>
<line class="st0" x1="236.1" y1="177.1" x2="258.7" y2="199.7"/>
<line class="st0" x1="281.3" y1="222.3" x2="303.9" y2="244.9"/>
<line class="st0" x1="225.7" y1="192.6" x2="255.2" y2="204.9"/>
<line class="st0" x1="284.8" y1="217.1" x2="314.3" y2="229.4"/>
<line class="st0" x1="531" y1="51" x2="499" y2="51"/>
<line class="st0" x1="435" y1="51" x2="403" y2="51"/>
<line class="st0" x1="713" y1="51" x2="697" y2="51"/>
<line class="st0" x1="633" y1="51" x2="617" y2="51"/>
<line class="st0" x1="709.3" y1="32.6" x2="694.6" y2="38.8"/>
<line class="st0" x1="635.4" y1="63.2" x2="620.7" y2="69.4"/>
<line class="st0" x1="698.9" y1="17.1" x2="687.6" y2="28.4"/>
<line class="st0" x1="642.4" y1="73.6" x2="631.1" y2="84.9"/>
<line class="st0" x1="683.4" y1="6.7" x2="677.2" y2="21.4"/>
<line class="st0" x1="652.8" y1="80.6" x2="646.6" y2="95.3"/>
<line class="st0" x1="665" y1="3" x2="665" y2="19"/>
<line class="st0" x1="665" y1="83" x2="665" y2="99"/>
<line class="st0" x1="646.6" y1="6.7" x2="652.8" y2="21.4"/>
<line class="st0" x1="677.2" y1="80.6" x2="683.4" y2="95.3"/>
<line class="st0" x1="631.1" y1="17.1" x2="642.4" y2="28.4"/>
<line class="st0" x1="687.6" y1="73.6" x2="698.9" y2="84.9"/>
<line class="st0" x1="620.7" y1="32.6" x2="635.4" y2="38.8"/>
<line class="st0" x1="694.6" y1="63.2" x2="709.3" y2="69.4"/>
<line class="st0" x1="526.1" y1="26.5" x2="496.6" y2="38.8"/>
<line class="st0" x1="437.4" y1="63.2" x2="407.9" y2="75.5"/>
<line class="st0" x1="512.3" y1="5.7" x2="489.6" y2="28.4"/>
<line class="st0" x1="444.4" y1="73.6" x2="421.7" y2="96.3"/>
<line class="st0" x1="491.5" y1="-8.1" x2="479.2" y2="21.4"/>
<line class="st0" x1="454.8" y1="80.6" x2="442.5" y2="110.1"/>
<line class="st0" x1="467" y1="-13" x2="467" y2="19"/>
<line class="st0" x1="467" y1="83" x2="467" y2="115"/>
<line class="st0" x1="442.5" y1="-8.1" x2="454.8" y2="21.4"/>
<line class="st0" x1="479.2" y1="80.6" x2="491.5" y2="110.1"/>
<line class="st0" x1="421.7" y1="5.7" x2="444.4" y2="28.4"/>
<line class="st0" x1="489.6" y1="73.6" x2="512.3" y2="96.3"/>
<line class="st0" x1="407.9" y1="26.5" x2="437.4" y2="38.8"/>
<g>
	<g>
		<line class="st0" x1="487.6" y1="382.2" x2="517.1" y2="394.4"/>
		<line class="st0" x1="487.6" y1="369.9" x2="517.1" y2="357.7"/>
		<line class="st0" x1="454.4" y1="420.4" x2="466.7" y2="390.8"/>
		<line class="st0" x1="491.2" y1="420.4" x2="478.9" y2="390.8"/>
	</g>
	<g>
		<line class="st0" x1="495.4" y1="398.7" x2="506.7" y2="410"/>
		<line class="st0" x1="502.3" y1="388.3" x2="517.1" y2="394.4"/>
		<line class="st0" x1="504.8" y1="376" x2="520.8" y2="376"/>
		<line class="st0" x1="502.3" y1="363.8" x2="517.1" y2="357.7"/>
		<line class="st0" x1="438.8" y1="410" x2="450.2" y2="398.7"/>
		<line class="st0" x1="495.4" y1="353.4" x2="506.7" y2="342.1"/>
		<line class="st0" x1="454.4" y1="420.4" x2="460.5" y2="405.6"/>
		<line class="st0" x1="472.8" y1="424" x2="472.8" y2="408"/>
		<line class="st0" x1="491.2" y1="420.4" x2="485" y2="405.6"/>
	</g>
	<g>
		<line class="st0" x1="495.4" y1="398.7" x2="518" y2="421.3"/>
		<line class="st0" x1="504.8" y1="376" x2="536.8" y2="376"/>
		<line class="st0" x1="427.5" y1="421.3" x2="450.2" y2="398.7"/>
		<line class="st0" x1="495.4" y1="353.4" x2="518" y2="330.8"/>
		<line class="st0" x1="472.8" y1="440" x2="472.8" y2="408"/>
	</g>
</g>
<g>
	<g>
		<line class="st0" x1="457.8" y1="370.2" x2="428.2" y2="357.9"/>
		<line class="st0" x1="457.8" y1="382.4" x2="428.2" y2="394.7"/>
		<line class="st0" x1="490.9" y1="331.9" x2="478.7" y2="361.5"/>
		<line class="st0" x1="454.2" y1="331.9" x2="466.4" y2="361.5"/>
	</g>
	<g>
		<line class="st0" x1="449.9" y1="353.7" x2="438.6" y2="342.3"/>
		<line class="st0" x1="443" y1="364" x2="428.2" y2="357.9"/>
		<line class="st0" x1="440.5" y1="376.3" x2="424.5" y2="376.3"/>
		<line class="st0" x1="443" y1="388.5" x2="428.2" y2="394.7"/>
		<line class="st0" x1="506.5" y1="342.3" x2="495.2" y2="353.7"/>
		<line class="st0" x1="449.9" y1="398.9" x2="438.6" y2="410.2"/>
		<line class="st0" x1="490.9" y1="331.9" x2="484.8" y2="346.7"/>
		<line class="st0" x1="472.5" y1="328.3" x2="472.5" y2="344.3"/>
		<line class="st0" x1="454.2" y1="331.9" x2="460.3" y2="346.7"/>
	</g>
	<g>
		<line class="st0" x1="449.9" y1="353.7" x2="427.3" y2="331"/>
		<line class="st0" x1="517.8" y1="331" x2="495.2" y2="353.7"/>
		<line class="st0" x1="449.9" y1="398.9" x2="427.3" y2="421.5"/>
		<line class="st0" x1="472.5" y1="312.3" x2="472.5" y2="344.3"/>
	</g>
</g>
<line class="st0" x1="496.6" y1="63.2" x2="526.1" y2="75.5"/>
<g>
	<line class="st1" x1="51" y1="52" x2="51" y2="58"/>
</g>
<g>
	<line class="st1" x1="51" y1="70" x2="51" y2="76"/>
</g>
<g>
	<line class="st1" x1="39" y1="64" x2="45" y2="64"/>
</g>
<line class="st0" x1="329.1" y1="26.5" x2="270" y2="51"/>
<line class="st0" x1="270" y1="51" x2="210.9" y2="75.5"/>
<line class="st0" x1="315.3" y1="5.7" x2="270" y2="51"/>
<line class="st0" x1="270" y1="51" x2="224.7" y2="96.3"/>
<line class="st0" x1="294.5" y1="-8.1" x2="270" y2="51"/>
<line class="st0" x1="270" y1="51" x2="245.5" y2="110.1"/>
<line class="st0" x1="270" y1="-13" x2="270" y2="51"/>
<line class="st0" x1="270" y1="51" x2="270" y2="115"/>
<line class="st0" x1="245.5" y1="-8.1" x2="270" y2="51"/>
<line class="st0" x1="270" y1="51" x2="294.5" y2="110.1"/>
<line class="st0" x1="224.7" y1="5.7" x2="270" y2="51"/>
<line class="st0" x1="270" y1="51" x2="315.3" y2="96.3"/>
<line class="st0" x1="210.9" y1="26.5" x2="270" y2="51"/>
<line class="st0" x1="270" y1="51" x2="329.1" y2="75.5"/>
<line class="st0" x1="440.5" y1="376.3" x2="248.5" y2="376.3"/>
<line class="st2" x1="57" y1="64" x2="89" y2="64"/>
<g>
	<line class="st2" x1="84.5" y1="182.5" x2="84.5" y2="176.5"/>
	<line class="st2" x1="84.5" y1="164.5" x2="84.5" y2="158.5"/>
	<line class="st2" x1="93" y1="179" x2="88.7" y2="174.7"/>
	<line class="st2" x1="80.3" y1="166.3" x2="76" y2="162"/>
	<line class="st2" x1="96.5" y1="170.5" x2="90.5" y2="170.5"/>
	<line class="st2" x1="78.5" y1="170.5" x2="72.5" y2="170.5"/>
	<line class="st2" x1="93" y1="162" x2="88.7" y2="166.3"/>
	<line class="st2" x1="80.3" y1="174.7" x2="76" y2="179"/>
</g>
<line class="st2" x1="68.5" y1="170.5" x2="32.5" y2="170.5"/>
<g>
	<line class="st2" x1="88.6" y1="180.5" x2="87.3" y2="177.2"/>
	<line class="st2" x1="81.7" y1="163.8" x2="80.4" y2="160.5"/>
	<line class="st2" x1="94.5" y1="174.6" x2="91.2" y2="173.3"/>
	<line class="st2" x1="77.8" y1="167.7" x2="74.5" y2="166.4"/>
	<line class="st2" x1="94.5" y1="166.4" x2="91.2" y2="167.7"/>
	<line class="st2" x1="77.8" y1="173.3" x2="74.5" y2="174.6"/>
	<line class="st2" x1="88.6" y1="160.5" x2="87.3" y2="163.8"/>
	<line class="st2" x1="81.7" y1="177.2" x2="80.4" y2="180.5"/>
</g>
<line class="st2" x1="45" y1="58" x2="48" y2="61"/>
<line class="st2" x1="54" y1="67" x2="57" y2="70"/>
<line class="st2" x1="45" y1="70" x2="48" y2="67"/>
<line class="st2" x1="54" y1="61" x2="57" y2="58"/>
<circle class="st3" cx="51" cy="64" r="2"/>
<circle class="st4" cx="85" cy="171" r="2"/>
</svg>
