<?xml version="1.0" encoding="UTF-8"?>
<svg xmlns="http://www.w3.org/2000/svg" xmlns:xlink="http://www.w3.org/1999/xlink" width="576pt" height="432pt" viewBox="0 0 576 432" version="1.1">
<g id="surface1">
<path style=" stroke:none;fill-rule:nonzero;fill:rgb(10.594177%,10.984802%,11.376953%);fill-opacity:1;" d="M 514.285156 216 C 514.285156 168.007813 505.800781 121.773438 490.390625 85.8125 C 481.03125 63.984375 469.183594 45.902344 455.167969 32.070313 C 445.722656 22.75 435.246094 15.308594 424.03125 9.953125 C 410.203125 3.347656 395.578125 0 380.570313 0 C 365.5625 0 350.941406 3.347656 337.109375 9.953125 C 330.773438 12.976563 324.671875 16.671875 318.855469 20.992188 C 313.042969 16.671875 306.941406 12.976563 300.605469 9.953125 C 286.773438 3.347656 272.152344 0 257.144531 0 C 242.136719 0 227.511719 3.347656 213.683594 9.953125 C 207.34375 12.976563 201.242188 16.671875 195.429688 20.992188 C 189.613281 16.671875 183.515625 12.976563 177.175781 9.953125 C 163.34375 3.347656 148.722656 0 133.714844 0 C 118.707031 0 104.085938 3.347656 90.253906 9.953125 C 79.039063 15.308594 68.5625 22.75 59.117188 32.070313 C 45.101563 45.902344 33.253906 63.984375 23.898438 85.8125 C 8.488281 121.773438 0 168.007813 0 216 L 61.714844 216 C 61.714844 263.992188 70.199219 310.226563 85.613281 346.1875 C 94.96875 368.015625 106.816406 386.097656 120.832031 399.929688 C 130.277344 409.25 140.753906 416.691406 151.96875 422.046875 C 165.800781 428.652344 180.421875 432 195.429688 432 C 210.4375 432 225.058594 428.652344 238.890625 422.046875 C 245.226563 419.023438 251.328125 415.328125 257.144531 411.007813 C 262.957031 415.328125 269.058594 419.023438 275.398438 422.046875 C 289.226563 428.652344 303.851563 432 318.855469 432 C 333.863281 432 348.488281 428.652344 362.316406 422.046875 C 368.65625 419.023438 374.757813 415.328125 380.570313 411.007813 C 386.386719 415.328125 392.488281 419.023438 398.824219 422.046875 C 412.65625 428.652344 427.277344 432 442.285156 432 C 457.292969 432 471.914063 428.652344 485.746094 422.046875 C 496.960938 416.691406 507.4375 409.25 516.882813 399.929688 C 530.898438 386.097656 542.746094 368.015625 552.101563 346.1875 C 567.511719 310.226563 576 263.992188 576 216 "/>
</g>
</svg>
