<?xml version="1.0" encoding="UTF-8"?><svg id="a" xmlns="http://www.w3.org/2000/svg" viewBox="0 0 640 480"><defs><style>.b{fill:#1b1c1d;}</style></defs><path class="b" d="M546.79,239.82c0-47.99-8.49-94.23-23.9-130.19-9.36-21.83-21.21-39.91-35.22-53.74-9.45-9.32-19.92-16.76-31.14-22.12-13.83-6.6-28.45-9.95-43.46-9.95s-29.63,3.35-43.46,9.95c-6.34,3.03-12.44,6.72-18.25,11.04-5.81-4.32-11.92-8.02-18.25-11.04-13.83-6.6-28.45-9.95-43.46-9.95s-29.63,3.35-43.46,9.95c-6.34,3.03-12.44,6.72-18.25,11.04-5.81-4.32-11.92-8.02-18.25-11.04-13.83-6.6-28.45-9.95-43.46-9.95s-29.63,3.35-43.46,9.95c-11.22,5.36-21.69,12.8-31.14,22.12-14.01,13.83-25.86,31.91-35.22,53.74-15.41,35.96-23.9,82.19-23.9,130.19h61.71c0,47.99,8.49,94.23,23.9,130.19,9.36,21.83,21.21,39.91,35.22,53.74,9.45,9.32,19.92,16.76,31.14,22.12,13.83,6.6,28.45,9.95,43.46,9.95s29.63-3.35,43.46-9.95c6.34-3.03,12.44-6.72,18.25-11.04,5.81,4.32,11.92,8.02,18.25,11.04,13.83,6.6,28.45,9.95,43.46,9.95s29.63-3.35,43.46-9.95c6.34-3.03,12.44-6.72,18.25-11.04,5.81,4.32,11.92,8.02,18.25,11.04,13.83,6.6,28.45,9.95,43.46,9.95s29.63-3.35,43.46-9.95c11.22-5.35,21.69-12.8,31.14-22.12,14.01-13.83,25.86-31.91,35.22-53.74,15.41-35.96,23.9-82.19,23.9-130.19h-61.71Z"/></svg>